<svg width="30" height="30" viewBox="0 0 30 30" fill="none" xmlns="http://www.w3.org/2000/svg">
<path fill-rule="evenodd" clip-rule="evenodd" d="M0 0H15C23.2843 0 30 6.71573 30 15C30 23.2843 23.2843 30 15 30H0V0Z" fill="white"/>
<mask id="mask0_1_1235" style="mask-type:alpha" maskUnits="userSpaceOnUse" x="0" y="0" width="30" height="30">
<path fill-rule="evenodd" clip-rule="evenodd" d="M0 0H15C23.2843 0 30 6.71573 30 15C30 23.2843 23.2843 30 15 30H0V0Z" fill="white"/>
</mask>
<g mask="url(#mask0_1_1235)">
<path fill-rule="evenodd" clip-rule="evenodd" d="M15.15 0C23.4343 0 30.15 6.71573 30.15 15C30.15 23.2843 23.4343 30 15.15 30V0Z" fill="white"/>
</g>
<path fill-rule="evenodd" clip-rule="evenodd" d="M0 15L15 0C18.7603 0 22.1974 1.38364 24.83 3.66956C24.8294 3.675 13.5 15 13.5 15C13.5 15 24.83 26.325 24.8294 26.3309C22.1969 28.6165 18.76 30 15 30L0 15Z" fill="url(#paint0_linear_1_1235)"/>
<path fill-rule="evenodd" clip-rule="evenodd" d="M24.8303 3.6698C27.9974 6.42 30 10.4761 30 15C30 19.5241 27.9971 23.5804 24.8297 26.3306C24.8303 26.325 13.5 15 13.5 15L24.8303 3.6698Z" fill="url(#paint1_linear_1_1235)"/>
<mask id="mask1_1_1235" style="mask-type:alpha" maskUnits="userSpaceOnUse" x="13" y="3" width="17" height="24">
<path fill-rule="evenodd" clip-rule="evenodd" d="M24.8303 3.6698C27.9974 6.42 30 10.4761 30 15C30 19.5241 27.9971 23.5804 24.8297 26.3306C24.8303 26.325 13.5 15 13.5 15L24.8303 3.6698Z" fill="white"/>
</mask>
<g mask="url(#mask1_1_1235)">
</g>
<defs>
<linearGradient id="paint0_linear_1_1235" x1="0" y1="33.164" x2="30.0674" y2="33.164" gradientUnits="userSpaceOnUse">
<stop stop-color="#4899F7"/>
<stop offset="1" stop-color="#2457F5"/>
</linearGradient>
<linearGradient id="paint1_linear_1_1235" x1="7.21333" y1="15.7441" x2="28.1199" y2="26.6294" gradientUnits="userSpaceOnUse">
<stop stop-color="#9DE1E5"/>
<stop offset="1" stop-color="#B8DFB2"/>
</linearGradient>
</defs>
</svg>
